{
  "accessors": [
    {
      "bufferView": 2,
      "componentType": 5126,
      "count": 8875,
      "max": [
        0.9967893362045288,
        4.3144211769104,
        0.9967893362045288
      ],
      "min": [
        -1.6843842267990112,
        0.0,
        -0.9967895150184631
      ],
      "type": "VEC3"
    },
    {
      "bufferView": 2,
      "byteOffset": 106500,
      "componentType": 5126,
      "count": 8875,
      "max": [
        1.0,
        1.0,
        1.0
      ],
      "min": [
        -1.0,
        -1.0,
        -1.0
      ],
      "type": "VEC3"
    },
    {
      "bufferView": 3,
      "componentType": 5126,
      "count": 8875,
      "max": [
        1.0,
        1.0,
        0.999999463558197,
        1.0
      ],
      "min": [
        -1.0,
        -1.0,
        -0.9999998211860657,
        -1.0
      ],
      "type": "VEC4"
    },
    {
      "bufferView": 1,
      "componentType": 5126,
      "count": 8875,
      "max": [
        0.9812076687812805,
        0.9997636079788208
      ],
      "min": [
        0.0002451848704367876,
        0.00023652029631193727
      ],
      "type": "VEC2"
    },
    {
      "bufferView": 0,
      "componentType": 5125,
      "count": 43776,
      "type": "SCALAR"
    },
    {
      "bufferView": 2,
      "byteOffset": 213000,
      "componentType": 5126,
      "count": 3135,
      "max": [
        0.9967893362045288,
        3.118969678878784,
        0.9967893362045288
      ],
      "min": [
        -0.9967893958091736,
        0.0,
        -0.9967895150184631
      ],
      "type": "VEC3"
    },
    {
      "bufferView": 2,
      "byteOffset": 250620,
      "componentType": 5126,
      "count": 3135,
      "max": [
        1.0,
        0.9938772916793823,
        1.0
      ],
      "min": [
        -1.0,
        -1.0,
        -1.0
      ],
      "type": "VEC3"
    },
    {
      "bufferView": 3,
      "byteOffset": 142000,
      "componentType": 5126,
      "count": 3135,
      "max": [
        1.0,
        1.0,
        0.999999463558197,
        1.0
      ],
      "min": [
        -1.0,
        -1.0,
        -1.0,
        -1.0
      ],
      "type": "VEC4"
    },
    {
      "bufferView": 1,
      "byteOffset": 71000,
      "componentType": 5126,
      "count": 3135,
      "max": [
        0.9241482019424438,
        0.9997636079788208
      ],
      "min": [
        0.0002451848704367876,
        0.00023652029631193727
      ],
      "type": "VEC2"
    },
    {
      "bufferView": 0,
      "byteOffset": 175104,
      "componentType": 5125,
      "count": 16704,
      "type": "SCALAR"
    },
    {
      "bufferView": 2,
      "byteOffset": 288240,
      "componentType": 5126,
      "count": 3278,
      "max": [
        0.9967893362045288,
        3.1189706325531006,
        0.9967893362045288
      ],
      "min": [
        -0.9967893958091736,
        -1.2648655456359847e-09,
        -0.9967895150184631
      ],
      "type": "VEC3"
    },
    {
      "bufferView": 2,
      "byteOffset": 327576,
      "componentType": 5126,
      "count": 3278,
      "max": [
        1.0,
        1.0,
        1.0
      ],
      "min": [
        -1.0,
        -0.9951975345611572,
        -1.0
      ],
      "type": "VEC3"
    },
    {
      "bufferView": 3,
      "byteOffset": 192160,
      "componentType": 5126,
      "count": 3278,
      "max": [
        1.0,
        1.0,
        1.0,
        1.0
      ],
      "min": [
        -1.0,
        -1.0,
        -1.0,
        -1.0
      ],
      "type": "VEC4"
    },
    {
      "bufferView": 1,
      "byteOffset": 96080,
      "componentType": 5126,
      "count": 3278,
      "max": [
        0.9241482019424438,
        0.9997636079788208
      ],
      "min": [
        0.0002451848704367876,
        0.00023652029631193727
      ],
      "type": "VEC2"
    },
    {
      "bufferView": 0,
      "byteOffset": 241920,
      "componentType": 5125,
      "count": 16713,
      "type": "SCALAR"
    },
    {
      "bufferView": 2,
      "byteOffset": 366912,
      "componentType": 5126,
      "count": 36864,
      "max": [
        6.111625671386719,
        0.8750534057617188,
        6.111623287200928
      ],
      "min": [
        -6.111621856689453,
        -10.583274841308594,
        -6.111622333526611
      ],
      "type": "VEC3"
    },
    {
      "bufferView": 2,
      "byteOffset": 809280,
      "componentType": 5126,
      "count": 36864,
      "max": [
        0.7277379035949707,
        0.6945027112960815,
        0.7279136776924133
      ],
      "min": [
        -0.7278411984443665,
        -0.6941261291503906,
        -0.7276753783226013
      ],
      "type": "VEC3"
    },
    {
      "bufferView": 1,
      "byteOffset": 122304,
      "componentType": 5126,
      "count": 36864,
      "max": [
        1.0,
        1.0
      ],
      "min": [
        0.0,
        0.0
      ],
      "type": "VEC2"
    },
    {
      "bufferView": 0,
      "byteOffset": 308772,
      "componentType": 5125,
      "count": 57600,
      "type": "SCALAR"
    },
    {
      "bufferView": 2,
      "byteOffset": 1251648,
      "componentType": 5126,
      "count": 1387,
      "max": [
        1.0,
        41.86133575439453,
        1.0
      ],
      "min": [
        -1.0,
        -11.370010375976563,
        -1.0
      ],
      "type": "VEC3"
    },
    {
      "bufferView": 2,
      "byteOffset": 1268292,
      "componentType": 5126,
      "count": 1387,
      "max": [
        1.0,
        1.0,
        1.0
      ],
      "min": [
        -1.0,
        -1.0,
        -1.0
      ],
      "type": "VEC3"
    },
    {
      "bufferView": 1,
      "byteOffset": 417216,
      "componentType": 5126,
      "count": 1387,
      "max": [
        0.45056429505348206,
        0.9999369978904724
      ],
      "min": [
        6.291104364208877e-05,
        6.291104364208877e-05
      ],
      "type": "VEC2"
    },
    {
      "bufferView": 0,
      "byteOffset": 539172,
      "componentType": 5125,
      "count": 7305,
      "type": "SCALAR"
    },
    {
      "bufferView": 2,
      "byteOffset": 1284936,
      "componentType": 5126,
      "count": 4150,
      "max": [
        1.4948841333389282,
        0.46099188923835754,
        1.4948841333389282
      ],
      "min": [
        -1.4948841333389282,
        0.0,
        -1.4948843717575073
      ],
      "type": "VEC3"
    },
    {
      "bufferView": 2,
      "byteOffset": 1334736,
      "componentType": 5126,
      "count": 4150,
      "max": [
        1.0,
        1.0,
        1.0
      ],
      "min": [
        -1.0,
        -1.0,
        -1.0
      ],
      "type": "VEC3"
    },
    {
      "bufferView": 3,
      "byteOffset": 244608,
      "componentType": 5126,
      "count": 4150,
      "max": [
        0.9995110630989075,
        1.0,
        0.7920390367507935,
        1.0
      ],
      "min": [
        -0.9999942779541016,
        -0.9998635053634644,
        -0.7788341045379639,
        1.0
      ],
      "type": "VEC4"
    },
    {
      "bufferView": 1,
      "byteOffset": 428312,
      "componentType": 5126,
      "count": 4150,
      "max": [
        0.9657307267189026,
        0.9810698628425598
      ],
      "min": [
        0.016019610688090324,
        0.019108064472675323
      ],
      "type": "VEC2"
    },
    {
      "bufferView": 0,
      "byteOffset": 568392,
      "componentType": 5125,
      "count": 18384,
      "type": "SCALAR"
    }
  ],
  "asset": {
    "extras": {
      "author": "gorzi (https://sketchfab.com/gorzi90)",
      "license": "CC-BY-4.0 (http://creativecommons.org/licenses/by/4.0/)",
      "source": "https://sketchfab.com/3d-models/bathroom-accesories-1103528bef074721a5a54d1a60ea56ab",
      "title": "bathroom accesories"
    },
    "generator": "Sketchfab-12.66.0",
    "version": "2.0"
  },
  "bufferViews": [
    {
      "buffer": 0,
      "byteLength": 641928,
      "name": "floatBufferViews",
      "target": 34963
    },
    {
      "buffer": 0,
      "byteLength": 461512,
      "byteOffset": 641928,
      "byteStride": 8,
      "name": "floatBufferViews",
      "target": 34962
    },
    {
      "buffer": 0,
      "byteLength": 1384536,
      "byteOffset": 1103440,
      "byteStride": 12,
      "name": "floatBufferViews",
      "target": 34962
    },
    {
      "buffer": 0,
      "byteLength": 311008,
      "byteOffset": 2487976,
      "byteStride": 16,
      "name": "floatBufferViews",
      "target": 34962
    }
  ],
  "buffers": [
    {
      "byteLength": 2798984,
      "uri": "scene.bin"
    }
  ],
  "images": [
    {
      "uri": "textures/Material.001_baseColor.jpeg"
    },
    {
      "uri": "textures/Material.001_metallicRoughness.png"
    },
    {
      "uri": "textures/Material.001_normal.png"
    },
    {
      "uri": "textures/Material.003_baseColor.jpeg"
    },
    {
      "uri": "textures/Material.003_metallicRoughness.png"
    },
    {
      "uri": "textures/Material.004_baseColor.jpeg"
    },
    {
      "uri": "textures/Material.004_metallicRoughness.png"
    },
    {
      "uri": "textures/Material.004_normal.png"
    }
  ],
  "materials": [
    {
      "doubleSided": true,
      "name": "Material.001",
      "normalTexture": {
        "index": 2,
        "scale": 0.7252506551386584
      },
      "pbrMetallicRoughness": {
        "baseColorTexture": {
          "index": 0
        },
        "metallicRoughnessTexture": {
          "index": 1
        },
        "roughnessFactor": 0.8590144647319556
      }
    },
    {
      "doubleSided": true,
      "name": "Material.002",
      "pbrMetallicRoughness": {
        "baseColorFactor": [
          0.0146696,
          0.0146696,
          0.0146696,
          1.0
        ],
        "metallicFactor": 0.0,
        "roughnessFactor": 0.5
      }
    },
    {
      "doubleSided": true,
      "name": "Material.003",
      "pbrMetallicRoughness": {
        "baseColorTexture": {
          "index": 3
        },
        "metallicRoughnessTexture": {
          "index": 4
        }
      }
    },
    {
      "doubleSided": true,
      "name": "Material.004",
      "normalTexture": {
        "index": 7,
        "scale": 0.1841152436021378
      },
      "pbrMetallicRoughness": {
        "baseColorTexture": {
          "index": 5
        },
        "metallicRoughnessTexture": {
          "index": 6
        }
      }
    }
  ],
  "meshes": [
    {
      "name": "Object_0",
      "primitives": [
        {
          "attributes": {
            "NORMAL": 1,
            "POSITION": 0,
            "TANGENT": 2,
            "TEXCOORD_0": 3
          },
          "indices": 4,
          "material": 0,
          "mode": 4
        }
      ]
    },
    {
      "name": "Object_1",
      "primitives": [
        {
          "attributes": {
            "NORMAL": 6,
            "POSITION": 5,
            "TANGENT": 7,
            "TEXCOORD_0": 8
          },
          "indices": 9,
          "material": 0,
          "mode": 4
        }
      ]
    },
    {
      "name": "Object_2",
      "primitives": [
        {
          "attributes": {
            "NORMAL": 11,
            "POSITION": 10,
            "TANGENT": 12,
            "TEXCOORD_0": 13
          },
          "indices": 14,
          "material": 0,
          "mode": 4
        }
      ]
    },
    {
      "name": "Object_3",
      "primitives": [
        {
          "attributes": {
            "NORMAL": 16,
            "POSITION": 15,
            "TEXCOORD_0": 17
          },
          "indices": 18,
          "material": 1,
          "mode": 4
        }
      ]
    },
    {
      "name": "Object_4",
      "primitives": [
        {
          "attributes": {
            "NORMAL": 20,
            "POSITION": 19,
            "TEXCOORD_0": 21
          },
          "indices": 22,
          "material": 2,
          "mode": 4
        }
      ]
    },
    {
      "name": "Object_5",
      "primitives": [
        {
          "attributes": {
            "NORMAL": 24,
            "POSITION": 23,
            "TANGENT": 25,
            "TEXCOORD_0": 26
          },
          "indices": 27,
          "material": 3,
          "mode": 4
        }
      ]
    }
  ],
  "nodes": [
    {
      "children": [
        1
      ],
      "matrix": [
        1.0,
        0.0,
        0.0,
        0.0,
        0.0,
        2.220446049250313e-16,
        -1.0,
        0.0,
        0.0,
        1.0,
        2.220446049250313e-16,
        0.0,
        0.0,
        0.0,
        0.0,
        1.0
      ],
      "name": "Sketchfab_model"
    },
    {
      "children": [
        2
      ],
      "name": "root"
    },
    {
      "children": [
        3,
        5,
        7,
        9,
        11,
        13
      ],
      "matrix": [
        1.0,
        0.0,
        0.0,
        0.0,
        0.0,
        2.220446049250313e-16,
        1.0,
        0.0,
        0.0,
        -1.0,
        2.220446049250313e-16,
        0.0,
        0.0,
        0.0,
        0.0,
        1.0
      ],
      "name": "GLTF_SceneRootNode"
    },
    {
      "children": [
        4
      ],
      "name": "Circle_0"
    },
    {
      "mesh": 0,
      "name": "Object_4"
    },
    {
      "children": [
        6
      ],
      "matrix": [
        1.0,
        0.0,
        0.0,
        0.0,
        0.0,
        1.0,
        0.0,
        0.0,
        0.0,
        0.0,
        1.0,
        0.0,
        3.1562416553497314,
        0.0,
        0.0,
        1.0
      ],
      "name": "Circle.001_2"
    },
    {
      "mesh": 1,
      "name": "Object_6"
    },
    {
      "children": [
        8
      ],
      "matrix": [
        1.4117735624313354,
        0.0,
        0.0,
        0.0,
        0.0,
        -1.4117735624312602,
        -4.6001423155130145e-07,
        0.0,
        0.0,
        4.6001423155130145e-07,
        -1.4117735624312602,
        0.0,
        6.688084125518799,
        4.3792548179626465,
        0.0,
        1.0
      ],
      "name": "Circle.002_4"
    },
    {
      "mesh": 2,
      "name": "Object_8"
    },
    {
      "children": [
        10
      ],
      "matrix": [
        0.19385606050491333,
        0.0,
        0.0,
        0.0,
        0.0,
        0.19385606050491333,
        0.0,
        0.0,
        0.0,
        0.0,
        0.19385606050491333,
        0.0,
        6.688084125518799,
        4.028836250305176,
        0.0,
        1.0
      ],
      "name": "Circle.003_5"
    },
    {
      "mesh": 3,
      "name": "Object_10"
    },
    {
      "children": [
        12
      ],
      "matrix": [
        0.19385606050491333,
        0.0,
        0.0,
        0.0,
        0.0,
        0.19385606050491333,
        0.0,
        0.0,
        0.0,
        0.0,
        0.19385606050491333,
        0.0,
        6.688084125518799,
        4.028836250305176,
        0.0,
        1.0
      ],
      "name": "Circle.004_6"
    },
    {
      "mesh": 4,
      "name": "Object_12"
    },
    {
      "children": [
        14
      ],
      "matrix": [
        1.0,
        0.0,
        0.0,
        0.0,
        0.0,
        1.0,
        0.0,
        0.0,
        0.0,
        0.0,
        1.0,
        0.0,
        -3.8633477687835693,
        0.0,
        0.12272372841835022,
        1.0
      ],
      "name": "Circle.005_7"
    },
    {
      "mesh": 5,
      "name": "Object_14"
    }
  ],
  "samplers": [
    {
      "magFilter": 9729,
      "minFilter": 9987,
      "wrapS": 10497,
      "wrapT": 10497
    }
  ],
  "scene": 0,
  "scenes": [
    {
      "name": "Sketchfab_Scene",
      "nodes": [
        0
      ]
    }
  ],
  "textures": [
    {
      "sampler": 0,
      "source": 0
    },
    {
      "sampler": 0,
      "source": 1
    },
    {
      "sampler": 0,
      "source": 2
    },
    {
      "sampler": 0,
      "source": 3
    },
    {
      "sampler": 0,
      "source": 4
    },
    {
      "sampler": 0,
      "source": 5
    },
    {
      "sampler": 0,
      "source": 6
    },
    {
      "sampler": 0,
      "source": 7
    }
  ]
}
