{
  "accessors": [
    {
      "bufferView": 2,
      "componentType": 5126,
      "count": 537,
      "max": [
        70.0,
        80.0,
        26.0
      ],
      "min": [
        -60.000003814697266,
        0.0,
        -25.0
      ],
      "type": "VEC3"
    },
    {
      "bufferView": 2,
      "byteOffset": 6444,
      "componentType": 5126,
      "count": 537,
      "max": [
        1.0,
        1.0,
        1.0
      ],
      "min": [
        -1.0,
        -1.0,
        -1.0
      ],
      "type": "VEC3"
    },
    {
      "bufferView": 1,
      "componentType": 5126,
      "count": 537,
      "max": [
        0.8747943043708801,
        1.0
      ],
      "min": [
        0.125,
        0.0
      ],
      "type": "VEC2"
    },
    {
      "bufferView": 0,
      "componentType": 5125,
      "count": 780,
      "type": "SCALAR"
    },
    {
      "bufferView": 2,
      "byteOffset": 12888,
      "componentType": 5126,
      "count": 138,
      "max": [
        59.999996185302734,
        79.0,
        26.80000114440918
      ],
      "min": [
        -35.000003814697266,
        38.59999465942383,
        26.0
      ],
      "type": "VEC3"
    },
    {
      "bufferView": 2,
      "byteOffset": 14544,
      "componentType": 5126,
      "count": 138,
      "max": [
        1.0,
        1.0,
        1.0
      ],
      "min": [
        -1.0,
        -1.0,
        -1.0
      ],
      "type": "VEC3"
    },
    {
      "bufferView": 1,
      "byteOffset": 4296,
      "componentType": 5126,
      "count": 138,
      "max": [
        0.875,
        1.0
      ],
      "min": [
        0.125,
        0.0
      ],
      "type": "VEC2"
    },
    {
      "bufferView": 0,
      "byteOffset": 3120,
      "componentType": 5125,
      "count": 252,
      "type": "SCALAR"
    },
    {
      "bufferView": 2,
      "byteOffset": 16200,
      "componentType": 5126,
      "count": 96,
      "max": [
        70.00000762939453,
        82.00000762939453,
        28.0
      ],
      "min": [
        -60.000003814697266,
        80.0,
        -25.0
      ],
      "type": "VEC3"
    },
    {
      "bufferView": 2,
      "byteOffset": 17352,
      "componentType": 5126,
      "count": 96,
      "max": [
        1.0,
        1.0,
        1.0
      ],
      "min": [
        -1.0,
        -1.0,
        -1.0
      ],
      "type": "VEC3"
    },
    {
      "bufferView": 1,
      "byteOffset": 5400,
      "componentType": 5126,
      "count": 96,
      "max": [
        2.25,
        1.1115384101867676
      ],
      "min": [
        -0.75,
        -0.1115383505821228
      ],
      "type": "VEC2"
    },
    {
      "bufferView": 0,
      "byteOffset": 4128,
      "componentType": 5125,
      "count": 132,
      "type": "SCALAR"
    },
    {
      "bufferView": 2,
      "byteOffset": 18504,
      "componentType": 5126,
      "count": 577,
      "max": [
        10.000000953674316,
        95.00000762939453,
        26.000001907348633
      ],
      "min": [
        -50.0,
        82.0,
        -25.0
      ],
      "type": "VEC3"
    },
    {
      "bufferView": 2,
      "byteOffset": 25428,
      "componentType": 5126,
      "count": 577,
      "max": [
        1.0,
        1.0,
        1.0
      ],
      "min": [
        -1.0,
        -1.0,
        -1.0
      ],
      "type": "VEC3"
    },
    {
      "bufferView": 1,
      "byteOffset": 6168,
      "componentType": 5126,
      "count": 577,
      "max": [
        0.87458336353302,
        1.0
      ],
      "min": [
        0.125,
        0.0
      ],
      "type": "VEC2"
    },
    {
      "bufferView": 0,
      "byteOffset": 4656,
      "componentType": 5125,
      "count": 912,
      "type": "SCALAR"
    },
    {
      "bufferView": 2,
      "byteOffset": 32352,
      "componentType": 5126,
      "count": 208,
      "max": [
        -16.000001907348633,
        86.73252868652344,
        9.600001335144043
      ],
      "min": [
        -24.000001907348633,
        85.47039794921875,
        1.599999189376831
      ],
      "type": "VEC3"
    },
    {
      "bufferView": 2,
      "byteOffset": 34848,
      "componentType": 5126,
      "count": 208,
      "max": [
        1.0,
        0.9995148777961731,
        1.0
      ],
      "min": [
        -1.0,
        0.0,
        -1.0
      ],
      "type": "VEC3"
    },
    {
      "bufferView": 1,
      "byteOffset": 10784,
      "componentType": 5126,
      "count": 208,
      "max": [
        0.0,
        0.0
      ],
      "min": [
        0.0,
        0.0
      ],
      "type": "VEC2"
    },
    {
      "bufferView": 0,
      "byteOffset": 8304,
      "componentType": 5125,
      "count": 1194,
      "type": "SCALAR"
    },
    {
      "bufferView": 2,
      "byteOffset": 37344,
      "componentType": 5126,
      "count": 519,
      "max": [
        -18.000001907348633,
        107.31090545654297,
        -10.199999809265137
      ],
      "min": [
        -22.000001907348633,
        95.00000762939453,
        -21.900001525878906
      ],
      "type": "VEC3"
    },
    {
      "bufferView": 2,
      "byteOffset": 43572,
      "componentType": 5126,
      "count": 519,
      "max": [
        1.0,
        1.0,
        1.0
      ],
      "min": [
        -1.0,
        -1.0,
        -1.0
      ],
      "type": "VEC3"
    },
    {
      "bufferView": 1,
      "byteOffset": 12448,
      "componentType": 5126,
      "count": 519,
      "max": [
        1.0000001192092896,
        1.0
      ],
      "min": [
        0.0,
        0.0
      ],
      "type": "VEC2"
    },
    {
      "bufferView": 0,
      "byteOffset": 13080,
      "componentType": 5125,
      "count": 792,
      "type": "SCALAR"
    },
    {
      "bufferView": 2,
      "byteOffset": 49800,
      "componentType": 5126,
      "count": 32,
      "max": [
        -19.14680290222168,
        105.98324584960938,
        -19.130584716796875
      ],
      "min": [
        -20.85320281982422,
        104.88323974609375,
        -20.83698272705078
      ],
      "type": "VEC3"
    },
    {
      "bufferView": 2,
      "byteOffset": 50184,
      "componentType": 5126,
      "count": 32,
      "max": [
        1.0,
        0.0,
        1.0
      ],
      "min": [
        -1.0,
        0.0,
        -1.0
      ],
      "type": "VEC3"
    },
    {
      "bufferView": 1,
      "byteOffset": 16600,
      "componentType": 5126,
      "count": 32,
      "max": [
        0.0,
        0.0
      ],
      "min": [
        0.0,
        0.0
      ],
      "type": "VEC2"
    },
    {
      "bufferView": 0,
      "byteOffset": 16248,
      "componentType": 5125,
      "count": 96,
      "type": "SCALAR"
    }
  ],
  "asset": {
    "extras": {
      "author": "d-luX (https://sketchfab.com/dluX80)",
      "license": "CC-BY-4.0 (http://creativecommons.org/licenses/by/4.0/)",
      "source": "https://sketchfab.com/3d-models/dlx-bathroom-sink-puris-aspekt-9f4a07d36d934fdd8122978f4ad669e9",
      "title": "dlX - Bathroom Sink (Puris Aspekt)"
    },
    "generator": "Sketchfab-15.9.0",
    "version": "2.0"
  },
  "bufferViews": [
    {
      "buffer": 0,
      "byteLength": 16632,
      "name": "floatBufferViews",
      "target": 34963
    },
    {
      "buffer": 0,
      "byteLength": 16856,
      "byteOffset": 16632,
      "byteStride": 8,
      "name": "floatBufferViews",
      "target": 34962
    },
    {
      "buffer": 0,
      "byteLength": 50568,
      "byteOffset": 33488,
      "byteStride": 12,
      "name": "floatBufferViews",
      "target": 34962
    }
  ],
  "buffers": [
    {
      "byteLength": 84056,
      "uri": "scene.bin"
    }
  ],
  "images": [
    {
      "uri": "textures/wood_baseColor.png"
    }
  ],
  "materials": [
    {
      "doubleSided": true,
      "name": "dark",
      "pbrMetallicRoughness": {
        "baseColorFactor": [
          0.00489549,
          0.00489549,
          0.00489549,
          1.0
        ],
        "metallicFactor": 0.3946678694639831,
        "roughnessFactor": 0.5382843071521742
      }
    },
    {
      "doubleSided": true,
      "name": "Chrome_dark",
      "pbrMetallicRoughness": {
        "baseColorFactor": [
          0.007149217809741786,
          0.007149217809741786,
          0.007149217809741786,
          1.0
        ],
        "roughnessFactor": 0.09600029257232022
      }
    },
    {
      "doubleSided": true,
      "name": "wood",
      "pbrMetallicRoughness": {
        "baseColorTexture": {
          "index": 0
        },
        "metallicFactor": 0.0,
        "roughnessFactor": 0.7957256746431407
      }
    },
    {
      "doubleSided": true,
      "name": "Chrome_light",
      "pbrMetallicRoughness": {
        "baseColorFactor": [
          0.8,
          0.8,
          0.8,
          1.0
        ],
        "metallicFactor": 0.9615267398910168,
        "roughnessFactor": 0.0
      }
    }
  ],
  "meshes": [
    {
      "name": "Main_dark_0",
      "primitives": [
        {
          "attributes": {
            "NORMAL": 1,
            "POSITION": 0,
            "TEXCOORD_0": 2
          },
          "indices": 3,
          "material": 0,
          "mode": 4
        }
      ]
    },
    {
      "name": "Handles_Chrome_dark_0",
      "primitives": [
        {
          "attributes": {
            "NORMAL": 5,
            "POSITION": 4,
            "TEXCOORD_0": 6
          },
          "indices": 7,
          "material": 1,
          "mode": 4
        }
      ]
    },
    {
      "name": "Table_wood_0",
      "primitives": [
        {
          "attributes": {
            "NORMAL": 9,
            "POSITION": 8,
            "TEXCOORD_0": 10
          },
          "indices": 11,
          "material": 2,
          "mode": 4
        }
      ]
    },
    {
      "name": "Sink_dark_0",
      "primitives": [
        {
          "attributes": {
            "NORMAL": 13,
            "POSITION": 12,
            "TEXCOORD_0": 14
          },
          "indices": 15,
          "material": 0,
          "mode": 4
        }
      ]
    },
    {
      "name": "Drain_Chrome_light_0",
      "primitives": [
        {
          "attributes": {
            "NORMAL": 17,
            "POSITION": 16,
            "TEXCOORD_0": 18
          },
          "indices": 19,
          "material": 3,
          "mode": 4
        }
      ]
    },
    {
      "name": "Tap_Chrome_dark_0",
      "primitives": [
        {
          "attributes": {
            "NORMAL": 21,
            "POSITION": 20,
            "TEXCOORD_0": 22
          },
          "indices": 23,
          "material": 1,
          "mode": 4
        }
      ]
    },
    {
      "name": "Tap_Chrome_light_0",
      "primitives": [
        {
          "attributes": {
            "NORMAL": 25,
            "POSITION": 24,
            "TEXCOORD_0": 26
          },
          "indices": 27,
          "material": 3,
          "mode": 4
        }
      ]
    }
  ],
  "nodes": [
    {
      "children": [
        1
      ],
      "matrix": [
        1.0,
        0.0,
        0.0,
        0.0,
        0.0,
        2.220446049250313e-16,
        -1.0,
        0.0,
        0.0,
        1.0,
        2.220446049250313e-16,
        0.0,
        0.0,
        0.0,
        0.0,
        1.0
      ],
      "name": "Sketchfab_model"
    },
    {
      "children": [
        2
      ],
      "matrix": [
        0.009999999776482582,
        0.0,
        0.0,
        0.0,
        0.0,
        0.0,
        0.009999999776482582,
        0.0,
        0.0,
        -0.009999999776482582,
        0.0,
        0.0,
        0.0,
        0.0,
        0.0,
        1.0
      ],
      "name": "dlX - Bathroom sink.fbx"
    },
    {
      "children": [
        3,
        5,
        7,
        9,
        11,
        13
      ],
      "name": "RootNode"
    },
    {
      "children": [
        4
      ],
      "name": "Main"
    },
    {
      "mesh": 0,
      "name": "Main_dark_0"
    },
    {
      "children": [
        6
      ],
      "name": "Handles"
    },
    {
      "mesh": 1,
      "name": "Handles_Chrome_dark_0"
    },
    {
      "children": [
        8
      ],
      "name": "Table"
    },
    {
      "mesh": 2,
      "name": "Table_wood_0"
    },
    {
      "children": [
        10
      ],
      "name": "Sink"
    },
    {
      "mesh": 3,
      "name": "Sink_dark_0"
    },
    {
      "children": [
        12
      ],
      "name": "Drain"
    },
    {
      "mesh": 4,
      "name": "Drain_Chrome_light_0"
    },
    {
      "children": [
        14,
        15
      ],
      "name": "Tap"
    },
    {
      "mesh": 5,
      "name": "Tap_Chrome_dark_0"
    },
    {
      "mesh": 6,
      "name": "Tap_Chrome_light_0"
    }
  ],
  "samplers": [
    {
      "magFilter": 9729,
      "minFilter": 9987,
      "wrapS": 10497,
      "wrapT": 10497
    }
  ],
  "scene": 0,
  "scenes": [
    {
      "name": "Sketchfab_Scene",
      "nodes": [
        0
      ]
    }
  ],
  "textures": [
    {
      "sampler": 0,
      "source": 0
    }
  ]
}
