{
  "accessors": [
    {
      "bufferView": 2,
      "componentType": 5126,
      "count": 2726,
      "max": [
        44.256099700927734,
        51.540000915527344,
        8.522564888000488
      ],
      "min": [
        6.101186752319336,
        21.43999671936035,
        -9.217499732971191
      ],
      "type": "VEC3"
    },
    {
      "bufferView": 2,
      "byteOffset": 32712,
      "componentType": 5126,
      "count": 2726,
      "max": [
        1.0,
        1.0,
        1.0
      ],
      "min": [
        -1.0,
        -1.0,
        -1.0
      ],
      "type": "VEC3"
    },
    {
      "bufferView": 0,
      "componentType": 5125,
      "count": 10254,
      "type": "SCALAR"
    },
    {
      "bufferView": 2,
      "byteOffset": 65424,
      "componentType": 5126,
      "count": 4385,
      "max": [
        44.23716354370117,
        -12.379855155944824,
        11.77099895477295
      ],
      "min": [
        36.23691940307617,
        -24.380146026611328,
        -9.229000091552734
      ],
      "type": "VEC3"
    },
    {
      "bufferView": 2,
      "byteOffset": 118044,
      "componentType": 5126,
      "count": 4385,
      "max": [
        1.0,
        1.0,
        1.0
      ],
      "min": [
        -1.0,
        -1.0,
        -1.0
      ],
      "type": "VEC3"
    },
    {
      "bufferView": 0,
      "byteOffset": 41016,
      "componentType": 5125,
      "count": 14865,
      "type": "SCALAR"
    },
    {
      "bufferView": 2,
      "byteOffset": 170664,
      "componentType": 5126,
      "count": 2977,
      "max": [
        8.599987030029297,
        42.9900016784668,
        13.782500267028809
      ],
      "min": [
        -23.79446792602539,
        11.770029067993164,
        -9.217499732971191
      ],
      "type": "VEC3"
    },
    {
      "bufferView": 2,
      "byteOffset": 206388,
      "componentType": 5126,
      "count": 2977,
      "max": [
        1.0,
        1.0,
        1.0
      ],
      "min": [
        -1.0,
        -1.0,
        -1.0
      ],
      "type": "VEC3"
    },
    {
      "bufferView": 1,
      "componentType": 5126,
      "count": 2977,
      "max": [
        13.390000343322754,
        79.52999877929688
      ],
      "min": [
        -12.010000228881836,
        -0.15000000596046448
      ],
      "type": "VEC2"
    },
    {
      "bufferView": 0,
      "byteOffset": 100476,
      "componentType": 5125,
      "count": 6444,
      "type": "SCALAR"
    },
    {
      "bufferView": 2,
      "byteOffset": 242112,
      "componentType": 5126,
      "count": 9416,
      "max": [
        45.93503952026367,
        60.769100189208984,
        13.782500267028809
      ],
      "min": [
        -46.0550422668457,
        -62.74003982543945,
        -3.09708833694458
      ],
      "type": "VEC3"
    },
    {
      "bufferView": 2,
      "byteOffset": 355104,
      "componentType": 5126,
      "count": 9416,
      "max": [
        1.0,
        1.0,
        1.0
      ],
      "min": [
        -1.0,
        -1.0,
        -1.0
      ],
      "type": "VEC3"
    },
    {
      "bufferView": 0,
      "byteOffset": 126252,
      "componentType": 5125,
      "count": 14772,
      "type": "SCALAR"
    },
    {
      "bufferView": 2,
      "byteOffset": 468096,
      "componentType": 5126,
      "count": 4247,
      "max": [
        44.41501998901367,
        42.9900016784668,
        13.782500267028809
      ],
      "min": [
        -33.98775863647461,
        31.999963760375977,
        -9.237189292907715
      ],
      "type": "VEC3"
    },
    {
      "bufferView": 2,
      "byteOffset": 519060,
      "componentType": 5126,
      "count": 4247,
      "max": [
        1.0,
        1.0,
        1.0
      ],
      "min": [
        -1.0,
        -1.0,
        -1.0
      ],
      "type": "VEC3"
    },
    {
      "bufferView": 0,
      "byteOffset": 185340,
      "componentType": 5125,
      "count": 6132,
      "type": "SCALAR"
    },
    {
      "bufferView": 2,
      "byteOffset": 570024,
      "componentType": 5126,
      "count": 9561,
      "max": [
        45.696571350097656,
        60.51893615722656,
        12.744248390197754
      ],
      "min": [
        1.6841684579849243,
        -62.29999923706055,
        -9.217499732971191
      ],
      "type": "VEC3"
    },
    {
      "bufferView": 2,
      "byteOffset": 684756,
      "componentType": 5126,
      "count": 9561,
      "max": [
        1.0,
        1.0,
        1.0
      ],
      "min": [
        -1.0,
        -1.0,
        -1.0
      ],
      "type": "VEC3"
    },
    {
      "bufferView": 0,
      "byteOffset": 209868,
      "componentType": 5125,
      "count": 16701,
      "type": "SCALAR"
    },
    {
      "bufferView": 2,
      "byteOffset": 799488,
      "componentType": 5126,
      "count": 3643,
      "max": [
        26.635177612304688,
        -14.974913597106934,
        0.4728303551673889
      ],
      "min": [
        21.634822845458984,
        -25.14508628845215,
        -9.237189292907715
      ],
      "type": "VEC3"
    },
    {
      "bufferView": 2,
      "byteOffset": 843204,
      "componentType": 5126,
      "count": 3643,
      "max": [
        1.0,
        1.0,
        1.0
      ],
      "min": [
        -1.0,
        -1.0,
        -1.0
      ],
      "type": "VEC3"
    },
    {
      "bufferView": 0,
      "byteOffset": 276672,
      "componentType": 5125,
      "count": 5148,
      "type": "SCALAR"
    },
    {
      "bufferView": 2,
      "byteOffset": 886920,
      "componentType": 5126,
      "count": 6835,
      "max": [
        47.25497817993164,
        60.84915542602539,
        14.2524995803833
      ],
      "min": [
        -47.255001068115234,
        -63.939998626708984,
        -9.617500305175781
      ],
      "type": "VEC3"
    },
    {
      "bufferView": 2,
      "byteOffset": 968940,
      "componentType": 5126,
      "count": 6835,
      "max": [
        1.0,
        1.0,
        1.0
      ],
      "min": [
        -1.0,
        -1.0,
        -1.0
      ],
      "type": "VEC3"
    },
    {
      "bufferView": 1,
      "byteOffset": 23816,
      "componentType": 5126,
      "count": 6835,
      "max": [
        1.0,
        1.0
      ],
      "min": [
        0.0,
        0.0
      ],
      "type": "VEC2"
    },
    {
      "bufferView": 0,
      "byteOffset": 297264,
      "componentType": 5125,
      "count": 8760,
      "type": "SCALAR"
    },
    {
      "bufferView": 2,
      "byteOffset": 1050960,
      "componentType": 5126,
      "count": 9605,
      "max": [
        47.25426483154297,
        63.63999938964844,
        15.182499885559082
      ],
      "min": [
        -47.255001068115234,
        -63.939998626708984,
        -9.237300872802734
      ],
      "type": "VEC3"
    },
    {
      "bufferView": 2,
      "byteOffset": 1166220,
      "componentType": 5126,
      "count": 9605,
      "max": [
        1.0,
        1.0,
        1.0
      ],
      "min": [
        -1.0,
        -1.0,
        -1.0
      ],
      "type": "VEC3"
    },
    {
      "bufferView": 1,
      "byteOffset": 78496,
      "componentType": 5126,
      "count": 9605,
      "max": [
        6.0,
        17.100000381469727
      ],
      "min": [
        -6.0,
        -0.46000000834465027
      ],
      "type": "VEC2"
    },
    {
      "bufferView": 0,
      "byteOffset": 332304,
      "componentType": 5125,
      "count": 14232,
      "type": "SCALAR"
    },
    {
      "bufferView": 2,
      "byteOffset": 1281480,
      "componentType": 5126,
      "count": 5270,
      "max": [
        47.25426483154297,
        63.63999938964844,
        15.182499885559082
      ],
      "min": [
        -47.255001068115234,
        -63.849998474121094,
        -9.617500305175781
      ],
      "type": "VEC3"
    },
    {
      "bufferView": 2,
      "byteOffset": 1344720,
      "componentType": 5126,
      "count": 5270,
      "max": [
        1.0,
        1.0,
        1.0
      ],
      "min": [
        -1.0,
        -1.0,
        -1.0
      ],
      "type": "VEC3"
    },
    {
      "bufferView": 1,
      "byteOffset": 155336,
      "componentType": 5126,
      "count": 5270,
      "max": [
        4.679999828338623,
        4.079999923706055
      ],
      "min": [
        0.0,
        0.0
      ],
      "type": "VEC2"
    },
    {
      "bufferView": 0,
      "byteOffset": 389232,
      "componentType": 5125,
      "count": 8472,
      "type": "SCALAR"
    }
  ],
  "asset": {
    "extras": {
      "author": "colinmansfield (https://sketchfab.com/colinmansfield)",
      "license": "CC-BY-4.0 (http://creativecommons.org/licenses/by/4.0/)",
      "source": "https://sketchfab.com/3d-models/home-floor-plan-empty-658c1aa87c1f4ddabd318c898ecef497",
      "title": "Home Floor Plan (empty)"
    },
    "generator": "Sketchfab-12.66.0",
    "version": "2.0"
  },
  "bufferViews": [
    {
      "buffer": 0,
      "byteLength": 423120,
      "name": "floatBufferViews",
      "target": 34963
    },
    {
      "buffer": 0,
      "byteLength": 197496,
      "byteOffset": 423120,
      "byteStride": 8,
      "name": "floatBufferViews",
      "target": 34962
    },
    {
      "buffer": 0,
      "byteLength": 1407960,
      "byteOffset": 620616,
      "byteStride": 12,
      "name": "floatBufferViews",
      "target": 34962
    }
  ],
  "buffers": [
    {
      "byteLength": 2028576,
      "uri": "scene.bin"
    }
  ],
  "extensionsRequired": [
    "KHR_materials_pbrSpecularGlossiness"
  ],
  "extensionsUsed": [
    "KHR_materials_pbrSpecularGlossiness"
  ],
  "materials": [
    {
      "doubleSided": true,
      "extensions": {
        "KHR_materials_pbrSpecularGlossiness": {
          "diffuseFactor": [
            1.0,
            1.0,
            1.0,
            1.0
          ],
          "glossinessFactor": 0.4,
          "specularFactor": [
            0.0,
            0.0,
            0.0
          ]
        }
      },
      "name": "material_0"
    }
  ],
  "meshes": [
    {
      "name": "Object_0",
      "primitives": [
        {
          "attributes": {
            "NORMAL": 1,
            "POSITION": 0
          },
          "indices": 2,
          "material": 0,
          "mode": 4
        }
      ]
    },
    {
      "name": "Object_1",
      "primitives": [
        {
          "attributes": {
            "NORMAL": 4,
            "POSITION": 3
          },
          "indices": 5,
          "material": 0,
          "mode": 4
        }
      ]
    },
    {
      "name": "Object_2",
      "primitives": [
        {
          "attributes": {
            "NORMAL": 7,
            "POSITION": 6,
            "TEXCOORD_0": 8
          },
          "indices": 9,
          "material": 0,
          "mode": 4
        }
      ]
    },
    {
      "name": "Object_3",
      "primitives": [
        {
          "attributes": {
            "NORMAL": 11,
            "POSITION": 10
          },
          "indices": 12,
          "material": 0,
          "mode": 4
        }
      ]
    },
    {
      "name": "Object_4",
      "primitives": [
        {
          "attributes": {
            "NORMAL": 14,
            "POSITION": 13
          },
          "indices": 15,
          "material": 0,
          "mode": 4
        }
      ]
    },
    {
      "name": "Object_5",
      "primitives": [
        {
          "attributes": {
            "NORMAL": 17,
            "POSITION": 16
          },
          "indices": 18,
          "material": 0,
          "mode": 4
        }
      ]
    },
    {
      "name": "Object_6",
      "primitives": [
        {
          "attributes": {
            "NORMAL": 20,
            "POSITION": 19
          },
          "indices": 21,
          "material": 0,
          "mode": 4
        }
      ]
    },
    {
      "name": "Object_7",
      "primitives": [
        {
          "attributes": {
            "NORMAL": 23,
            "POSITION": 22,
            "TEXCOORD_0": 24
          },
          "indices": 25,
          "material": 0,
          "mode": 4
        }
      ]
    },
    {
      "name": "Object_8",
      "primitives": [
        {
          "attributes": {
            "NORMAL": 27,
            "POSITION": 26,
            "TEXCOORD_0": 28
          },
          "indices": 29,
          "material": 0,
          "mode": 4
        }
      ]
    },
    {
      "name": "Object_9",
      "primitives": [
        {
          "attributes": {
            "NORMAL": 31,
            "POSITION": 30,
            "TEXCOORD_0": 32
          },
          "indices": 33,
          "material": 0,
          "mode": 4
        }
      ]
    }
  ],
  "nodes": [
    {
      "children": [
        1
      ],
      "matrix": [
        0.08854330331087112,
        0.0,
        0.0,
        0.0,
        0.0,
        1.9660562802419595e-17,
        -0.08854330331087112,
        0.0,
        0.0,
        0.08854330331087112,
        1.9660562802419595e-17,
        0.0,
        0.0,
        0.0,
        0.0,
        1.0
      ],
      "name": "Sketchfab_model"
    },
    {
      "children": [
        2,
        3,
        4,
        5,
        6,
        7,
        8,
        9,
        10,
        11
      ],
      "name": "Home-Ground Floor.obj.cleaner.materialmerger.gles"
    },
    {
      "mesh": 0,
      "name": "Object_2"
    },
    {
      "mesh": 1,
      "name": "Object_3"
    },
    {
      "mesh": 2,
      "name": "Object_4"
    },
    {
      "mesh": 3,
      "name": "Object_5"
    },
    {
      "mesh": 4,
      "name": "Object_6"
    },
    {
      "mesh": 5,
      "name": "Object_7"
    },
    {
      "mesh": 6,
      "name": "Object_8"
    },
    {
      "mesh": 7,
      "name": "Object_9"
    },
    {
      "mesh": 8,
      "name": "Object_10"
    },
    {
      "mesh": 9,
      "name": "Object_11"
    }
  ],
  "scene": 0,
  "scenes": [
    {
      "name": "Sketchfab_Scene",
      "nodes": [
        0
      ]
    }
  ]
}
