{
  "accessors": [
    {
      "bufferView": 2,
      "componentType": 5126,
      "count": 10383,
      "max": [
        1.1259229183197021,
        0.7822161316871643,
        0.08749958872795105
      ],
      "min": [
        -1.143899917602539,
        -0.8017796874046326,
        0.04031774029135704
      ],
      "type": "VEC3"
    },
    {
      "bufferView": 2,
      "byteOffset": 124596,
      "componentType": 5126,
      "count": 10383,
      "max": [
        0.4532826244831085,
        0.5237367153167725,
        0.9999868273735046
      ],
      "min": [
        -0.03764073923230171,
        -0.803167462348938,
        -0.9998456835746765
      ],
      "type": "VEC3"
    },
    {
      "bufferView": 1,
      "componentType": 5126,
      "count": 10383,
      "max": [
        1.0,
        1.0
      ],
      "min": [
        -5.960464477539063e-08,
        2.9802322387695313e-08
      ],
      "type": "VEC2"
    },
    {
      "bufferView": 1,
      "byteOffset": 83064,
      "componentType": 5126,
      "count": 10383,
      "max": [
        1.0,
        1.0
      ],
      "min": [
        -5.960464477539063e-08,
        2.9802322387695313e-08
      ],
      "type": "VEC2"
    },
    {
      "bufferView": 0,
      "componentType": 5125,
      "count": 10383,
      "type": "SCALAR"
    },
    {
      "bufferView": 2,
      "byteOffset": 249192,
      "componentType": 5126,
      "count": 65532,
      "max": [
        1.1261582374572754,
        0.7820478081703186,
        0.08157731592655182
      ],
      "min": [
        -1.1436660289764404,
        -0.8014721274375916,
        0.02381940744817257
      ],
      "type": "VEC3"
    },
    {
      "bufferView": 2,
      "byteOffset": 1035576,
      "componentType": 5126,
      "count": 65532,
      "max": [
        0.9935815930366516,
        0.9998509287834167,
        0.9999998807907104
      ],
      "min": [
        -0.98926842212677,
        -0.9982749223709106,
        -0.9993608593940735
      ],
      "type": "VEC3"
    },
    {
      "bufferView": 1,
      "byteOffset": 166128,
      "componentType": 5126,
      "count": 65532,
      "max": [
        0.9995900392532349,
        0.9979686141014099
      ],
      "min": [
        0.0009067525970749557,
        0.00032617582473903894
      ],
      "type": "VEC2"
    },
    {
      "bufferView": 1,
      "byteOffset": 690384,
      "componentType": 5126,
      "count": 65532,
      "max": [
        0.9995900392532349,
        0.9979686141014099
      ],
      "min": [
        0.0009067525970749557,
        0.00032617582473903894
      ],
      "type": "VEC2"
    },
    {
      "bufferView": 0,
      "byteOffset": 41532,
      "componentType": 5125,
      "count": 68028,
      "type": "SCALAR"
    },
    {
      "bufferView": 2,
      "byteOffset": 1821960,
      "componentType": 5126,
      "count": 65532,
      "max": [
        1.1136069297790527,
        0.7796061635017395,
        0.08535542339086533
      ],
      "min": [
        -1.1393898725509644,
        -0.7980033755302429,
        0.023926477879285812
      ],
      "type": "VEC3"
    },
    {
      "bufferView": 2,
      "byteOffset": 2608344,
      "componentType": 5126,
      "count": 65532,
      "max": [
        0.9558944702148438,
        0.9996472001075745,
        1.0
      ],
      "min": [
        -0.9938036799430847,
        -0.9787095189094543,
        -0.9584144353866577
      ],
      "type": "VEC3"
    },
    {
      "bufferView": 1,
      "byteOffset": 1214640,
      "componentType": 5126,
      "count": 65532,
      "max": [
        0.9994068741798401,
        0.9811229705810547
      ],
      "min": [
        0.0009605125524103642,
        0.00024910701904445887
      ],
      "type": "VEC2"
    },
    {
      "bufferView": 1,
      "byteOffset": 1738896,
      "componentType": 5126,
      "count": 65532,
      "max": [
        0.9994068741798401,
        0.9811229705810547
      ],
      "min": [
        0.0009605125524103642,
        0.00024910701904445887
      ],
      "type": "VEC2"
    },
    {
      "bufferView": 0,
      "byteOffset": 313644,
      "componentType": 5125,
      "count": 65532,
      "type": "SCALAR"
    },
    {
      "bufferView": 2,
      "byteOffset": 3394728,
      "componentType": 5126,
      "count": 65532,
      "max": [
        1.0265291929244995,
        0.7818671464920044,
        0.06954676657915115
      ],
      "min": [
        -1.1436660289764404,
        -0.8003145456314087,
        0.02381940744817257
      ],
      "type": "VEC3"
    },
    {
      "bufferView": 2,
      "byteOffset": 4181112,
      "componentType": 5126,
      "count": 65532,
      "max": [
        0.8608537316322327,
        0.9877479076385498,
        0.9999996423721313
      ],
      "min": [
        -0.9832996726036072,
        -0.9853534698486328,
        0.13530594110488892
      ],
      "type": "VEC3"
    },
    {
      "bufferView": 1,
      "byteOffset": 2263152,
      "componentType": 5126,
      "count": 65532,
      "max": [
        0.9992659687995911,
        0.9997557401657104
      ],
      "min": [
        0.000244140625,
        0.0005138112464919686
      ],
      "type": "VEC2"
    },
    {
      "bufferView": 1,
      "byteOffset": 2787408,
      "componentType": 5126,
      "count": 65532,
      "max": [
        0.9992659687995911,
        0.9997557401657104
      ],
      "min": [
        0.000244140625,
        0.0005138112464919686
      ],
      "type": "VEC2"
    },
    {
      "bufferView": 0,
      "byteOffset": 575772,
      "componentType": 5125,
      "count": 65532,
      "type": "SCALAR"
    },
    {
      "bufferView": 2,
      "byteOffset": 4967496,
      "componentType": 5126,
      "count": 65532,
      "max": [
        1.1177406311035156,
        0.015631865710020065,
        0.08321508765220642
      ],
      "min": [
        -1.0377142429351807,
        -0.8019437193870544,
        0.04912593960762024
      ],
      "type": "VEC3"
    },
    {
      "bufferView": 2,
      "byteOffset": 5753880,
      "componentType": 5126,
      "count": 65532,
      "max": [
        0.9939757585525513,
        0.9424493908882141,
        0.9999998807907104
      ],
      "min": [
        -0.7654075026512146,
        -0.9988974928855896,
        -0.9937693476676941
      ],
      "type": "VEC3"
    },
    {
      "bufferView": 1,
      "byteOffset": 3311664,
      "componentType": 5126,
      "count": 65532,
      "max": [
        0.9995512366294861,
        0.6750915050506592
      ],
      "min": [
        0.0014157205587252975,
        0.00041653646621853113
      ],
      "type": "VEC2"
    },
    {
      "bufferView": 1,
      "byteOffset": 3835920,
      "componentType": 5126,
      "count": 65532,
      "max": [
        0.9995512366294861,
        0.6750915050506592
      ],
      "min": [
        0.0014157205587252975,
        0.00041653646621853113
      ],
      "type": "VEC2"
    },
    {
      "bufferView": 0,
      "byteOffset": 837900,
      "componentType": 5125,
      "count": 65532,
      "type": "SCALAR"
    },
    {
      "bufferView": 2,
      "byteOffset": 6540264,
      "componentType": 5126,
      "count": 6231,
      "max": [
        1.1144181489944458,
        0.00710289878770709,
        0.08506862819194794
      ],
      "min": [
        0.5884736776351929,
        -0.7954461574554443,
        0.06355822086334229
      ],
      "type": "VEC3"
    },
    {
      "bufferView": 2,
      "byteOffset": 6615036,
      "componentType": 5126,
      "count": 6231,
      "max": [
        0.9838414788246155,
        0.9223189949989319,
        0.999999463558197
      ],
      "min": [
        -0.4650527834892273,
        -0.9028990864753723,
        0.12928110361099243
      ],
      "type": "VEC3"
    },
    {
      "bufferView": 1,
      "byteOffset": 4360176,
      "componentType": 5126,
      "count": 6231,
      "max": [
        0.9992219805717468,
        0.6509358882904053
      ],
      "min": [
        0.0015071065863594413,
        0.001153965131379664
      ],
      "type": "VEC2"
    },
    {
      "bufferView": 1,
      "byteOffset": 4410024,
      "componentType": 5126,
      "count": 6231,
      "max": [
        0.9992219805717468,
        0.6509358882904053
      ],
      "min": [
        0.0015071065863594413,
        0.001153965131379664
      ],
      "type": "VEC2"
    },
    {
      "bufferView": 0,
      "byteOffset": 1100028,
      "componentType": 5125,
      "count": 6231,
      "type": "SCALAR"
    }
  ],
  "asset": {
    "extras": {
      "author": "diwhy.life (https://sketchfab.com/diwhy.life)",
      "license": "CC-BY-4.0 (http://creativecommons.org/licenses/by/4.0/)",
      "source": "https://sketchfab.com/3d-models/descanso-5x7-off-white-shag-rug-266799cf672444ea8d2c480b5c981b02",
      "title": "Descanso 5X7 Off White Shag Rug"
    },
    "generator": "Sketchfab-16.16.0",
    "version": "2.0"
  },
  "bufferViews": [
    {
      "buffer": 0,
      "byteLength": 1124952,
      "name": "floatBufferViews",
      "target": 34963
    },
    {
      "buffer": 0,
      "byteLength": 4459872,
      "byteOffset": 1124952,
      "byteStride": 8,
      "name": "floatBufferViews",
      "target": 34962
    },
    {
      "buffer": 0,
      "byteLength": 6689808,
      "byteOffset": 5584824,
      "byteStride": 12,
      "name": "floatBufferViews",
      "target": 34962
    }
  ],
  "buffers": [
    {
      "byteLength": 12274632,
      "uri": "scene.bin"
    }
  ],
  "images": [
    {
      "uri": "textures/Rug_Bottom_baseColor.jpeg"
    },
    {
      "uri": "textures/tex_u1_v1_baseColor.jpeg"
    }
  ],
  "materials": [
    {
      "doubleSided": true,
      "name": "Rug_Bottom",
      "pbrMetallicRoughness": {
        "baseColorTexture": {
          "index": 0
        },
        "metallicFactor": 0.0,
        "roughnessFactor": 0.8929713596497552
      }
    },
    {
      "doubleSided": true,
      "name": "tex_u1_v1",
      "pbrMetallicRoughness": {
        "baseColorTexture": {
          "index": 1
        },
        "metallicFactor": 0.0,
        "roughnessFactor": 0.8929713596497552
      }
    }
  ],
  "meshes": [
    {
      "name": "Rug Bottom_Rug Bottom_0",
      "primitives": [
        {
          "attributes": {
            "NORMAL": 1,
            "POSITION": 0,
            "TEXCOORD_0": 2,
            "TEXCOORD_1": 3
          },
          "indices": 4,
          "material": 0,
          "mode": 4
        }
      ]
    },
    {
      "name": "model_tex_u1_v1_0",
      "primitives": [
        {
          "attributes": {
            "NORMAL": 6,
            "POSITION": 5,
            "TEXCOORD_0": 7,
            "TEXCOORD_1": 8
          },
          "indices": 9,
          "material": 1,
          "mode": 4
        }
      ]
    },
    {
      "name": "model_tex_u1_v1_0",
      "primitives": [
        {
          "attributes": {
            "NORMAL": 11,
            "POSITION": 10,
            "TEXCOORD_0": 12,
            "TEXCOORD_1": 13
          },
          "indices": 14,
          "material": 1,
          "mode": 4
        }
      ]
    },
    {
      "name": "model_tex_u1_v1_0",
      "primitives": [
        {
          "attributes": {
            "NORMAL": 16,
            "POSITION": 15,
            "TEXCOORD_0": 17,
            "TEXCOORD_1": 18
          },
          "indices": 19,
          "material": 1,
          "mode": 4
        }
      ]
    },
    {
      "name": "model_tex_u1_v1_0",
      "primitives": [
        {
          "attributes": {
            "NORMAL": 21,
            "POSITION": 20,
            "TEXCOORD_0": 22,
            "TEXCOORD_1": 23
          },
          "indices": 24,
          "material": 1,
          "mode": 4
        }
      ]
    },
    {
      "name": "model_tex_u1_v1_0",
      "primitives": [
        {
          "attributes": {
            "NORMAL": 26,
            "POSITION": 25,
            "TEXCOORD_0": 27,
            "TEXCOORD_1": 28
          },
          "indices": 29,
          "material": 1,
          "mode": 4
        }
      ]
    }
  ],
  "nodes": [
    {
      "children": [
        1
      ],
      "matrix": [
        1.0,
        0.0,
        0.0,
        0.0,
        0.0,
        2.220446049250313e-16,
        -1.0,
        0.0,
        0.0,
        1.0,
        2.220446049250313e-16,
        0.0,
        0.0,
        0.0,
        0.0,
        1.0
      ],
      "name": "Sketchfab_model"
    },
    {
      "children": [
        2
      ],
      "matrix": [
        0.0010000000474974513,
        0.0,
        0.0,
        0.0,
        0.0,
        0.0,
        0.0010000000474974513,
        0.0,
        0.0,
        -0.0010000000474974513,
        0.0,
        0.0,
        0.0,
        0.0,
        0.0,
        1.0
      ],
      "name": "Descanso White Rug v4.fbx"
    },
    {
      "children": [
        3
      ],
      "name": "RootNode"
    },
    {
      "children": [
        4,
        6
      ],
      "matrix": [
        1.0,
        0.0,
        0.0,
        0.0,
        0.0,
        2.220446049250313e-16,
        -1.0,
        0.0,
        0.0,
        1.0,
        2.220446049250313e-16,
        0.0,
        -10.474700927734375,
        56.98845672607422,
        -8.08587646484375,
        1.0
      ],
      "name": "RUG"
    },
    {
      "children": [
        5
      ],
      "matrix": [
        -0.0001629044390494272,
        -999.9003142726218,
        -14.119543812942092,
        0.0,
        999.9510372857173,
        -0.13988433203149242,
        9.89461791033549,
        0.0,
        -9.895606661106832,
        -14.118850869875399,
        999.8513564620107,
        0.0,
        10.474700927734375,
        -8.085875511169434,
        -73.56832122802734,
        1.0
      ],
      "name": "Rug Bottom"
    },
    {
      "mesh": 0,
      "name": "Rug Bottom_Rug Bottom_0"
    },
    {
      "children": [
        7,
        8,
        9,
        10,
        11
      ],
      "matrix": [
        -0.0001629044390494272,
        -999.9003142726218,
        -14.119543812942092,
        0.0,
        999.9510372857173,
        -0.13988433203149242,
        9.89461791033549,
        0.0,
        -9.895606661106832,
        -14.118850869875399,
        999.8513564620107,
        0.0,
        10.474700927734375,
        -8.08587646484375,
        -56.98845672607422,
        1.0
      ],
      "name": "model"
    },
    {
      "mesh": 1,
      "name": "model_tex_u1_v1_0"
    },
    {
      "mesh": 2,
      "name": "model_tex_u1_v1_0"
    },
    {
      "mesh": 3,
      "name": "model_tex_u1_v1_0"
    },
    {
      "mesh": 4,
      "name": "model_tex_u1_v1_0"
    },
    {
      "mesh": 5,
      "name": "model_tex_u1_v1_0"
    }
  ],
  "samplers": [
    {
      "magFilter": 9729,
      "minFilter": 9987,
      "wrapS": 10497,
      "wrapT": 10497
    }
  ],
  "scene": 0,
  "scenes": [
    {
      "name": "Sketchfab_Scene",
      "nodes": [
        0
      ]
    }
  ],
  "textures": [
    {
      "sampler": 0,
      "source": 0
    },
    {
      "sampler": 0,
      "source": 1
    }
  ]
}
