{
  "accessors": [
    {
      "bufferView": 2,
      "componentType": 5126,
      "count": 638,
      "max": [
        18.865421295166016,
        120.91520690917969,
        17.13901710510254
      ],
      "min": [
        -0.4328390061855316,
        84.22047424316406,
        -17.13902473449707
      ],
      "type": "VEC3"
    },
    {
      "bufferView": 2,
      "byteOffset": 7656,
      "componentType": 5126,
      "count": 638,
      "max": [
        1.0,
        1.0,
        1.0
      ],
      "min": [
        -1.0,
        -1.0,
        -1.0
      ],
      "type": "VEC3"
    },
    {
      "bufferView": 3,
      "componentType": 5126,
      "count": 638,
      "max": [
        1.0,
        1.0,
        1.0,
        1.0
      ],
      "min": [
        -1.0,
        -1.0,
        -0.9999989867210388,
        1.0
      ],
      "type": "VEC4"
    },
    {
      "bufferView": 1,
      "componentType": 5126,
      "count": 638,
      "max": [
        0.999114990234375,
        0.9993289709091187
      ],
      "min": [
        3.600000127335079e-05,
        0.006147999782115221
      ],
      "type": "VEC2"
    },
    {
      "bufferView": 0,
      "componentType": 5125,
      "count": 2322,
      "type": "SCALAR"
    },
    {
      "bufferView": 2,
      "byteOffset": 15312,
      "componentType": 5126,
      "count": 62,
      "max": [
        0.5000010132789612,
        0.41728198528289795,
        0.5
      ],
      "min": [
        -0.5,
        -0.5571269989013672,
        -0.5
      ],
      "type": "VEC3"
    },
    {
      "bufferView": 2,
      "byteOffset": 16056,
      "componentType": 5126,
      "count": 62,
      "max": [
        0.9972981214523315,
        0.9477725028991699,
        0.9964560270309448
      ],
      "min": [
        -0.9972981214523315,
        -0.9743384718894958,
        -0.9964560270309448
      ],
      "type": "VEC3"
    },
    {
      "bufferView": 3,
      "byteOffset": 10208,
      "componentType": 5126,
      "count": 62,
      "max": [
        0.4203068017959595,
        0.9999997615814209,
        0.9772622585296631,
        1.0
      ],
      "min": [
        -0.4211843013763428,
        -0.999825656414032,
        -0.9886210560798645,
        1.0
      ],
      "type": "VEC4"
    },
    {
      "bufferView": 1,
      "byteOffset": 5104,
      "componentType": 5126,
      "count": 62,
      "max": [
        0.9985629916191101,
        0.7580900192260742
      ],
      "min": [
        0.4339269995689392,
        0.3009749948978424
      ],
      "type": "VEC2"
    },
    {
      "bufferView": 0,
      "byteOffset": 9288,
      "componentType": 5125,
      "count": 252,
      "type": "SCALAR"
    },
    {
      "bufferView": 2,
      "byteOffset": 16800,
      "componentType": 5126,
      "count": 798,
      "max": [
        19.663803100585938,
        47.71003723144531,
        19.663803100585938
      ],
      "min": [
        -19.663799285888672,
        0.0,
        -19.663803100585938
      ],
      "type": "VEC3"
    },
    {
      "bufferView": 2,
      "byteOffset": 26376,
      "componentType": 5126,
      "count": 798,
      "max": [
        0.9954185485839844,
        1.0,
        0.9954185485839844
      ],
      "min": [
        -0.9954184889793396,
        -0.9691117405891418,
        -0.9954185485839844
      ],
      "type": "VEC3"
    },
    {
      "bufferView": 3,
      "byteOffset": 11200,
      "componentType": 5126,
      "count": 798,
      "max": [
        1.0,
        0.2341862916946411,
        1.0,
        1.0
      ],
      "min": [
        -1.0,
        -0.2341858148574829,
        -0.9999989867210388,
        1.0
      ],
      "type": "VEC4"
    },
    {
      "bufferView": 1,
      "byteOffset": 5600,
      "componentType": 5126,
      "count": 798,
      "max": [
        0.9561539888381958,
        0.9220100045204163
      ],
      "min": [
        0.0,
        0.0
      ],
      "type": "VEC2"
    },
    {
      "bufferView": 0,
      "byteOffset": 10296,
      "componentType": 5125,
      "count": 2580,
      "type": "SCALAR"
    }
  ],
  "asset": {
    "extras": {
      "author": "wring8 (https://sketchfab.com/wring8)",
      "license": "CC-BY-4.0 (http://creativecommons.org/licenses/by/4.0/)",
      "source": "https://sketchfab.com/3d-models/bathroom-assets-865e8aca42584db190d50c280f670e13",
      "title": "Bathroom Assets"
    },
    "generator": "Sketchfab-12.67.0",
    "version": "2.0"
  },
  "bufferViews": [
    {
      "buffer": 0,
      "byteLength": 20616,
      "name": "floatBufferViews",
      "target": 34963
    },
    {
      "buffer": 0,
      "byteLength": 11984,
      "byteOffset": 20616,
      "byteStride": 8,
      "name": "floatBufferViews",
      "target": 34962
    },
    {
      "buffer": 0,
      "byteLength": 35952,
      "byteOffset": 32600,
      "byteStride": 12,
      "name": "floatBufferViews",
      "target": 34962
    },
    {
      "buffer": 0,
      "byteLength": 23968,
      "byteOffset": 68552,
      "byteStride": 16,
      "name": "floatBufferViews",
      "target": 34962
    }
  ],
  "buffers": [
    {
      "byteLength": 92520,
      "uri": "scene.bin"
    }
  ],
  "images": [
    {
      "uri": "textures/BathroomMiscA_Mat_baseColor.jpeg"
    },
    {
      "uri": "textures/BathroomMiscA_Mat_metallicRoughness.png"
    },
    {
      "uri": "textures/BathroomMiscA_Mat_normal.png"
    }
  ],
  "materials": [
    {
      "doubleSided": true,
      "name": "BathroomMiscA_Mat",
      "normalTexture": {
        "index": 2
      },
      "occlusionTexture": {
        "index": 1
      },
      "pbrMetallicRoughness": {
        "baseColorTexture": {
          "index": 0
        },
        "metallicRoughnessTexture": {
          "index": 1
        }
      }
    }
  ],
  "meshes": [
    {
      "name": "defaultMaterial",
      "primitives": [
        {
          "attributes": {
            "NORMAL": 1,
            "POSITION": 0,
            "TANGENT": 2,
            "TEXCOORD_0": 3
          },
          "indices": 4,
          "material": 0,
          "mode": 4
        }
      ]
    },
    {
      "name": "defaultMaterial",
      "primitives": [
        {
          "attributes": {
            "NORMAL": 6,
            "POSITION": 5,
            "TANGENT": 7,
            "TEXCOORD_0": 8
          },
          "indices": 9,
          "material": 0,
          "mode": 4
        }
      ]
    },
    {
      "name": "defaultMaterial",
      "primitives": [
        {
          "attributes": {
            "NORMAL": 11,
            "POSITION": 10,
            "TANGENT": 12,
            "TEXCOORD_0": 13
          },
          "indices": 14,
          "material": 0,
          "mode": 4
        }
      ]
    }
  ],
  "nodes": [
    {
      "children": [
        1
      ],
      "matrix": [
        1.0,
        0.0,
        0.0,
        0.0,
        0.0,
        2.220446049250313e-16,
        -1.0,
        0.0,
        0.0,
        1.0,
        2.220446049250313e-16,
        0.0,
        0.0,
        0.0,
        0.0,
        1.0
      ],
      "name": "Sketchfab_model"
    },
    {
      "children": [
        2,
        4,
        6
      ],
      "matrix": [
        1.0,
        0.0,
        0.0,
        0.0,
        0.0,
        -4.371139006309477e-08,
        0.999999999999999,
        0.0,
        0.0,
        -0.999999999999999,
        -4.371139006309477e-08,
        0.0,
        0.0,
        0.0,
        0.0,
        1.0
      ],
      "name": "Collada visual scene group"
    },
    {
      "children": [
        3
      ],
      "name": "toiletpaper"
    },
    {
      "mesh": 0,
      "name": "defaultMaterial"
    },
    {
      "children": [
        5
      ],
      "matrix": [
        7.100773,
        0.0,
        -7.453897,
        0.0,
        0.0,
        4.081703,
        0.0,
        0.0,
        4.761398,
        0.0,
        4.53583,
        0.0,
        11.835562,
        143.083527,
        -21.329714,
        1.0
      ],
      "name": "soap"
    },
    {
      "mesh": 1,
      "name": "defaultMaterial"
    },
    {
      "children": [
        7
      ],
      "name": "trashcan"
    },
    {
      "mesh": 2,
      "name": "defaultMaterial"
    }
  ],
  "samplers": [
    {
      "magFilter": 9729,
      "minFilter": 9987,
      "wrapS": 10497,
      "wrapT": 10497
    }
  ],
  "scene": 0,
  "scenes": [
    {
      "name": "Sketchfab_Scene",
      "nodes": [
        0
      ]
    }
  ],
  "textures": [
    {
      "sampler": 0,
      "source": 0
    },
    {
      "sampler": 0,
      "source": 1
    },
    {
      "sampler": 0,
      "source": 2
    }
  ]
}
